<svg width="24" height="25" viewBox="0 0 24 25" fill="none" xmlns="http://www.w3.org/2000/svg">
<path fill-rule="evenodd" clip-rule="evenodd" d="M10.1569 13.2106L4.49994 18.8676L3.08594 17.4536L8.03594 12.5036L3.08594 7.55365L4.49994 6.13965L10.1569 11.7966C10.3444 11.9842 10.4497 12.2385 10.4497 12.5036C10.4497 12.7688 10.3444 13.0231 10.1569 13.2106Z" fill="#0A6DEE" fill-opacity="0.36"/>
<path fill-rule="evenodd" clip-rule="evenodd" d="M16.1569 13.2106L10.4999 18.8676L9.08594 17.4536L14.0359 12.5036L9.08594 7.55365L10.4999 6.13965L16.1569 11.7966C16.3444 11.9842 16.4497 12.2385 16.4497 12.5036C16.4497 12.7688 16.3444 13.0231 16.1569 13.2106Z" fill="#0A6DEE" fill-opacity="0.8"/>
<path fill-rule="evenodd" clip-rule="evenodd" d="M22.1569 13.2106L16.4999 18.8676L15.0859 17.4536L20.0359 12.5036L15.0859 7.55365L16.4999 6.13965L22.1569 11.7966C22.3444 11.9842 22.4497 12.2385 22.4497 12.5036C22.4497 12.7688 22.3444 13.0231 22.1569 13.2106Z" fill="#0A6DEE"/>
</svg>
