<svg width="21" height="20" viewBox="0 0 21 20" fill="none" xmlns="http://www.w3.org/2000/svg">
<path d="M18.85 5H15.1C15.1 3.80653 14.6259 2.66193 13.782 1.81802C12.938 0.974106 11.7934 0.5 10.6 0.5C9.4065 0.5 8.26191 0.974106 7.418 1.81802C6.57408 2.66193 6.09998 3.80653 6.09998 5H2.34998C1.95215 5 1.57062 5.15804 1.28932 5.43934C1.00801 5.72064 0.849976 6.10218 0.849976 6.5V17.75C0.849976 18.1478 1.00801 18.5294 1.28932 18.8107C1.57062 19.092 1.95215 19.25 2.34998 19.25H18.85C19.2478 19.25 19.6293 19.092 19.9106 18.8107C20.1919 18.5294 20.35 18.1478 20.35 17.75V6.5C20.35 6.10218 20.1919 5.72064 19.9106 5.43934C19.6293 5.15804 19.2478 5 18.85 5ZM10.6 2C11.3956 2 12.1587 2.31607 12.7213 2.87868C13.2839 3.44129 13.6 4.20435 13.6 5H7.59998C7.59998 4.20435 7.91605 3.44129 8.47866 2.87868C9.04126 2.31607 9.80433 2 10.6 2ZM18.85 17.75H2.34998V6.5H6.09998V8C6.09998 8.19891 6.17899 8.38968 6.31965 8.53033C6.4603 8.67098 6.65106 8.75 6.84998 8.75C7.04889 8.75 7.23965 8.67098 7.38031 8.53033C7.52096 8.38968 7.59998 8.19891 7.59998 8V6.5H13.6V8C13.6 8.19891 13.679 8.38968 13.8196 8.53033C13.9603 8.67098 14.1511 8.75 14.35 8.75C14.5489 8.75 14.7397 8.67098 14.8803 8.53033C15.021 8.38968 15.1 8.19891 15.1 8V6.5H18.85V17.75Z" fill="white"/>
</svg>
