<svg width="18" height="16" viewBox="0 0 18 16" fill="none" xmlns="http://www.w3.org/2000/svg">
<path fill-rule="evenodd" clip-rule="evenodd" d="M16.0833 4.66949C16.0361 4.66671 15.9858 4.6656 15.9325 4.66615H13.8283C12.105 4.66615 10.6308 6.02282 10.6308 7.79115C10.6308 9.55949 12.1058 10.9162 13.8283 10.9162H15.9325C15.9858 10.9167 16.0364 10.9156 16.0841 10.9128C16.4383 10.8915 16.7727 10.7421 17.0249 10.4925C17.2771 10.2429 17.4299 9.9101 17.455 9.55615C17.4583 9.50615 17.4583 9.45199 17.4583 9.40199V6.18032C17.4583 6.13032 17.4583 6.07615 17.455 6.02615C17.4299 5.67221 17.2771 5.33943 17.0249 5.08984C16.7727 4.84024 16.4375 4.69084 16.0833 4.66949ZM13.6441 8.62449C14.0875 8.62449 14.4466 8.25115 14.4466 7.79115C14.4466 7.33115 14.0875 6.95782 13.6441 6.95782C13.2 6.95782 12.8408 7.33115 12.8408 7.79115C12.8408 8.25115 13.2 8.62449 13.6441 8.62449Z" fill="white"/>
<path fill-rule="evenodd" clip-rule="evenodd" d="M15.9316 12.1667C15.9604 12.1655 15.989 12.1712 16.0153 12.1832C16.0415 12.1952 16.0645 12.2132 16.0824 12.2358C16.1004 12.2583 16.1127 12.2848 16.1185 12.3131C16.1243 12.3413 16.1234 12.3705 16.1157 12.3983C15.9491 12.9917 15.6832 13.4983 15.2574 13.9233C14.6332 14.5483 13.8424 14.8242 12.8657 14.9558C11.9157 15.0833 10.7032 15.0833 9.17156 15.0833H7.41156C5.8799 15.0833 4.66656 15.0833 3.7174 14.9558C2.74073 14.8242 1.9499 14.5475 1.32573 13.9242C0.702398 13.3 0.425732 12.5092 0.294065 11.5325C0.166565 10.5825 0.166565 9.37 0.166565 7.83833V7.745C0.166565 6.21333 0.166565 5 0.294065 4.05C0.425732 3.07333 0.702398 2.2825 1.32573 1.65833C1.9499 1.035 2.74073 0.758333 3.7174 0.626667C4.6674 0.5 5.8799 0.5 7.41156 0.5H9.17156C10.7032 0.5 11.9166 0.5 12.8657 0.6275C13.8424 0.759167 14.6332 1.03583 15.2574 1.65917C15.6832 2.08583 15.9491 2.59167 16.1157 3.185C16.1234 3.21281 16.1243 3.24202 16.1185 3.27027C16.1127 3.29851 16.1004 3.325 16.0824 3.34757C16.0645 3.37014 16.0415 3.38816 16.0153 3.40016C15.989 3.41217 15.9604 3.41782 15.9316 3.41667H13.8282C11.4641 3.41667 9.38073 5.28333 9.38073 7.79167C9.38073 10.3 11.4641 12.1667 13.8282 12.1667H15.9316ZM3.29156 3.83333C3.1258 3.83333 2.96683 3.89918 2.84962 4.01639C2.73241 4.1336 2.66656 4.29257 2.66656 4.45833C2.66656 4.62409 2.73241 4.78306 2.84962 4.90027C2.96683 5.01749 3.1258 5.08333 3.29156 5.08333H6.6249C6.79066 5.08333 6.94963 5.01749 7.06684 4.90027C7.18405 4.78306 7.2499 4.62409 7.2499 4.45833C7.2499 4.29257 7.18405 4.1336 7.06684 4.01639C6.94963 3.89918 6.79066 3.83333 6.6249 3.83333H3.29156Z" fill="white"/>
</svg>
