<svg width="1102" height="311" viewBox="0 0 1102 311" fill="none" xmlns="http://www.w3.org/2000/svg">
<path d="M57.8318 307.288C56.8611 307.288 56.0344 307.128 55.3518 306.808C54.6691 306.488 54.1464 306.045 53.7838 305.48C53.4211 304.915 53.2398 304.275 53.2398 303.56H54.8078C54.8078 303.912 54.8984 304.264 55.0798 304.616C55.2718 304.968 55.5864 305.261 56.0238 305.496C56.4718 305.731 57.0744 305.848 57.8318 305.848C58.5358 305.848 59.1118 305.747 59.5598 305.544C60.0078 305.331 60.3384 305.059 60.5518 304.728C60.7651 304.387 60.8718 304.019 60.8718 303.624C60.8718 303.144 60.6638 302.749 60.2478 302.44C59.8318 302.12 59.2238 301.923 58.4238 301.848L57.1278 301.736C56.0931 301.651 55.2664 301.331 54.6478 300.776C54.0291 300.221 53.7198 299.491 53.7198 298.584C53.7198 297.869 53.8904 297.245 54.2318 296.712C54.5838 296.179 55.0691 295.763 55.6878 295.464C56.3064 295.155 57.0264 295 57.8478 295C58.6584 295 59.3731 295.149 59.9918 295.448C60.6104 295.747 61.0904 296.168 61.4318 296.712C61.7838 297.245 61.9598 297.885 61.9598 298.632H60.3918C60.3918 298.259 60.3011 297.907 60.1198 297.576C59.9491 297.245 59.6771 296.973 59.3038 296.76C58.9304 296.547 58.4451 296.44 57.8478 296.44C57.2718 296.44 56.7918 296.541 56.4078 296.744C56.0344 296.947 55.7518 297.213 55.5598 297.544C55.3784 297.864 55.2878 298.211 55.2878 298.584C55.2878 299.011 55.4531 299.389 55.7838 299.72C56.1144 300.051 56.6051 300.243 57.2558 300.296L58.5518 300.408C59.7464 300.515 60.6904 300.845 61.3837 301.4C62.0878 301.944 62.4398 302.685 62.4398 303.624C62.4398 304.339 62.2478 304.973 61.8638 305.528C61.4798 306.083 60.9411 306.515 60.2478 306.824C59.5544 307.133 58.7491 307.288 57.8318 307.288ZM67.807 307.256C66.7937 307.256 66.015 306.925 65.471 306.264C64.927 305.603 64.655 304.648 64.655 303.4V298.44H66.191V303.704C66.191 304.376 66.3723 304.904 66.735 305.288C67.0977 305.661 67.5883 305.848 68.207 305.848C68.847 305.848 69.3697 305.645 69.775 305.24C70.1803 304.824 70.383 304.259 70.383 303.544V298.44H71.919V307H70.703V305.032C70.511 305.757 70.1803 306.312 69.711 306.696C69.2417 307.069 68.6283 307.256 67.871 307.256H67.807ZM74.8939 307V298.456H76.1099V300.44C76.3019 299.715 76.6432 299.16 77.1339 298.776C77.6352 298.392 78.2859 298.2 79.0859 298.2H79.1499C80.2272 298.2 81.0219 298.536 81.5339 299.208C82.0565 299.88 82.3179 300.851 82.3179 302.12V307H80.7819V301.8C80.7819 301.139 80.5952 300.611 80.2219 300.216C79.8485 299.811 79.3365 299.608 78.6859 299.608C78.0139 299.608 77.4699 299.816 77.0539 300.232C76.6379 300.648 76.4299 301.203 76.4299 301.896V307H74.8939Z" fill="#667085"/>
<path d="M219.813 307V295.32H221.893L225.349 303.112H225.605L229.045 295.32H231.141V307H229.573V297.32L226.373 304.584H224.453L221.253 297.352V307H219.813ZM238.244 307.288C237.497 307.288 236.841 307.16 236.276 306.904C235.711 306.648 235.231 306.312 234.836 305.896C234.452 305.469 234.159 304.995 233.956 304.472C233.764 303.949 233.668 303.416 233.668 302.872V302.584C233.668 302.04 233.769 301.507 233.972 300.984C234.175 300.451 234.473 299.976 234.868 299.56C235.263 299.133 235.743 298.797 236.308 298.552C236.873 298.296 237.519 298.168 238.244 298.168C238.969 298.168 239.615 298.296 240.18 298.552C240.745 298.797 241.225 299.133 241.62 299.56C242.015 299.976 242.313 300.451 242.516 300.984C242.719 301.507 242.82 302.04 242.82 302.584V302.872C242.82 303.416 242.719 303.949 242.516 304.472C242.324 304.995 242.031 305.469 241.636 305.896C241.252 306.312 240.777 306.648 240.212 306.904C239.647 307.16 238.991 307.288 238.244 307.288ZM238.244 305.912C238.884 305.912 239.428 305.773 239.876 305.496C240.335 305.208 240.681 304.824 240.916 304.344C241.161 303.864 241.284 303.325 241.284 302.728C241.284 302.12 241.161 301.576 240.916 301.096C240.671 300.616 240.319 300.237 239.86 299.96C239.412 299.683 238.873 299.544 238.244 299.544C237.625 299.544 237.087 299.683 236.628 299.96C236.169 300.237 235.817 300.616 235.572 301.096C235.327 301.576 235.204 302.12 235.204 302.728C235.204 303.325 235.321 303.864 235.556 304.344C235.801 304.824 236.148 305.208 236.596 305.496C237.055 305.773 237.604 305.912 238.244 305.912ZM245.12 307V298.456H246.336V300.44C246.528 299.715 246.87 299.16 247.36 298.776C247.862 298.392 248.512 298.2 249.312 298.2H249.376C250.454 298.2 251.248 298.536 251.76 299.208C252.283 299.88 252.544 300.851 252.544 302.12V307H251.008V301.8C251.008 301.139 250.822 300.611 250.448 300.216C250.075 299.811 249.563 299.608 248.912 299.608C248.24 299.608 247.696 299.816 247.28 300.232C246.864 300.648 246.656 301.203 246.656 301.896V307H245.12Z" fill="#667085"/>
<path d="M392.163 307V296.728H388.611V295.32H397.283V296.728H393.731V307H392.163ZM401.393 307.256C400.38 307.256 399.601 306.925 399.057 306.264C398.513 305.603 398.241 304.648 398.241 303.4V298.44H399.777V303.704C399.777 304.376 399.958 304.904 400.321 305.288C400.684 305.661 401.174 305.848 401.793 305.848C402.433 305.848 402.956 305.645 403.361 305.24C403.766 304.824 403.969 304.259 403.969 303.544V298.44H405.505V307H404.289V305.032C404.097 305.757 403.766 306.312 403.297 306.696C402.828 307.069 402.214 307.256 401.457 307.256H401.393ZM412.112 307.288C411.365 307.288 410.72 307.16 410.176 306.904C409.632 306.648 409.189 306.312 408.848 305.896C408.506 305.469 408.25 304.995 408.08 304.472C407.92 303.949 407.84 303.416 407.84 302.872V302.584C407.84 302.029 407.92 301.491 408.08 300.968C408.25 300.445 408.506 299.976 408.848 299.56C409.189 299.133 409.621 298.797 410.144 298.552C410.677 298.296 411.301 298.168 412.016 298.168C412.944 298.168 413.706 298.371 414.304 298.776C414.912 299.171 415.36 299.683 415.648 300.312C415.946 300.941 416.096 301.613 416.096 302.328V303.016H409.312C409.365 303.859 409.616 304.557 410.064 305.112C410.512 305.667 411.194 305.944 412.112 305.944C412.784 305.944 413.328 305.795 413.744 305.496C414.17 305.197 414.426 304.851 414.512 304.456H415.952C415.77 305.341 415.338 306.035 414.656 306.536C413.973 307.037 413.125 307.288 412.112 307.288ZM412.016 299.512C411.248 299.512 410.645 299.731 410.208 300.168C409.77 300.595 409.493 301.16 409.376 301.864H414.592C414.496 301.139 414.234 300.568 413.808 300.152C413.381 299.725 412.784 299.512 412.016 299.512Z" fill="#667085"/>
<path d="M555.07 307L551.918 295.32H553.534L556.174 305.592H556.67L558.814 295.8H560.814L563.23 305.592H563.726L566.078 295.32H567.646L564.782 307H562.094L559.806 297.88L557.742 307H555.07ZM572.838 307.288C572.092 307.288 571.446 307.16 570.902 306.904C570.358 306.648 569.916 306.312 569.574 305.896C569.233 305.469 568.977 304.995 568.806 304.472C568.646 303.949 568.566 303.416 568.566 302.872V302.584C568.566 302.029 568.646 301.491 568.806 300.968C568.977 300.445 569.233 299.976 569.574 299.56C569.916 299.133 570.348 298.797 570.87 298.552C571.404 298.296 572.028 298.168 572.742 298.168C573.67 298.168 574.433 298.371 575.03 298.776C575.638 299.171 576.086 299.683 576.374 300.312C576.673 300.941 576.822 301.613 576.822 302.328V303.016H570.038C570.092 303.859 570.342 304.557 570.79 305.112C571.238 305.667 571.921 305.944 572.838 305.944C573.51 305.944 574.054 305.795 574.47 305.496C574.897 305.197 575.153 304.851 575.238 304.456H576.678C576.497 305.341 576.065 306.035 575.382 306.536C574.7 307.037 573.852 307.288 572.838 307.288ZM572.742 299.512C571.974 299.512 571.372 299.731 570.934 300.168C570.497 300.595 570.22 301.16 570.102 301.864H575.318C575.222 301.139 574.961 300.568 574.534 300.152C574.108 299.725 573.51 299.512 572.742 299.512ZM582.571 307.288C581.761 307.288 581.035 307.091 580.395 306.696C579.766 306.301 579.27 305.773 578.907 305.112C578.545 304.44 578.363 303.693 578.363 302.872V302.584C578.363 301.773 578.539 301.037 578.891 300.376C579.243 299.704 579.729 299.171 580.347 298.776C580.977 298.371 581.702 298.168 582.523 298.168C583.153 298.168 583.729 298.296 584.251 298.552C584.785 298.808 585.217 299.208 585.547 299.752V295.32H587.083V307H585.867V305.24C585.537 305.965 585.073 306.488 584.475 306.808C583.889 307.128 583.254 307.288 582.571 307.288ZM582.779 305.944C583.302 305.944 583.777 305.827 584.203 305.592C584.63 305.357 584.971 305.021 585.227 304.584C585.483 304.136 585.611 303.613 585.611 303.016V302.28C585.611 301.693 585.478 301.197 585.211 300.792C584.955 300.376 584.609 300.061 584.171 299.848C583.745 299.624 583.275 299.512 582.763 299.512C581.91 299.512 581.217 299.805 580.683 300.392C580.161 300.979 579.899 301.757 579.899 302.728C579.899 303.379 580.022 303.949 580.267 304.44C580.513 304.92 580.854 305.293 581.291 305.56C581.729 305.816 582.225 305.944 582.779 305.944Z" fill="#667085"/>
<path d="M727.296 307V296.728H723.744V295.32H732.416V296.728H728.864V307H727.296ZM734.3 307V295.32H735.836V299.96C736.071 299.395 736.407 298.963 736.844 298.664C737.292 298.355 737.863 298.2 738.556 298.2H738.62C739.644 298.2 740.417 298.541 740.94 299.224C741.463 299.896 741.724 300.861 741.724 302.12V307H740.188V301.8C740.188 301.107 739.991 300.568 739.596 300.184C739.212 299.8 738.711 299.608 738.092 299.608C737.409 299.608 736.86 299.837 736.444 300.296C736.039 300.744 735.836 301.336 735.836 302.072V307H734.3ZM747.495 307.256C746.481 307.256 745.703 306.925 745.159 306.264C744.615 305.603 744.343 304.648 744.343 303.4V298.44H745.879V303.704C745.879 304.376 746.06 304.904 746.423 305.288C746.785 305.661 747.276 305.848 747.895 305.848C748.535 305.848 749.057 305.645 749.463 305.24C749.868 304.824 750.071 304.259 750.071 303.544V298.44H751.607V307H750.391V305.032C750.199 305.757 749.868 306.312 749.399 306.696C748.929 307.069 748.316 307.256 747.559 307.256H747.495ZM754.581 307V298.456H755.797V301.016C755.925 300.099 756.261 299.427 756.805 299C757.349 298.573 758.091 298.36 759.029 298.36H759.317V299.736H758.773C757.92 299.736 757.264 299.965 756.805 300.424C756.347 300.872 756.117 301.523 756.117 302.376V307H754.581Z" fill="#667085"/>
<path d="M896.04 307V295.32H902.568V296.728H897.608V300.392L902.296 300.376V301.784L897.608 301.8V307H896.04ZM904.644 307V298.456H905.86V301.016C905.988 300.099 906.324 299.427 906.868 299C907.412 298.573 908.153 298.36 909.092 298.36H909.38V299.736H908.836C907.983 299.736 907.327 299.965 906.868 300.424C906.409 300.872 906.18 301.523 906.18 302.376V307H904.644ZM912.054 297.08C911.713 297.08 911.457 296.989 911.286 296.808C911.126 296.627 911.046 296.397 911.046 296.12C911.046 295.843 911.126 295.613 911.286 295.432C911.457 295.251 911.713 295.16 912.054 295.16C912.396 295.16 912.646 295.251 912.806 295.432C912.977 295.613 913.062 295.843 913.062 296.12C913.062 296.397 912.977 296.627 912.806 296.808C912.646 296.989 912.396 297.08 912.054 297.08ZM911.622 307V299.672H910.31V298.456H913.158V307H911.622Z" fill="#667085"/>
<path d="M1054.96 307.288C1053.99 307.288 1053.17 307.128 1052.48 306.808C1051.8 306.488 1051.28 306.045 1050.92 305.48C1050.55 304.915 1050.37 304.275 1050.37 303.56H1051.94C1051.94 303.912 1052.03 304.264 1052.21 304.616C1052.4 304.968 1052.72 305.261 1053.16 305.496C1053.6 305.731 1054.21 305.848 1054.96 305.848C1055.67 305.848 1056.24 305.747 1056.69 305.544C1057.14 305.331 1057.47 305.059 1057.68 304.728C1057.9 304.387 1058 304.019 1058 303.624C1058 303.144 1057.8 302.749 1057.38 302.44C1056.96 302.12 1056.36 301.923 1055.56 301.848L1054.26 301.736C1053.23 301.651 1052.4 301.331 1051.78 300.776C1051.16 300.221 1050.85 299.491 1050.85 298.584C1050.85 297.869 1051.02 297.245 1051.36 296.712C1051.72 296.179 1052.2 295.763 1052.82 295.464C1053.44 295.155 1054.16 295 1054.98 295C1055.79 295 1056.51 295.149 1057.12 295.448C1057.74 295.747 1058.22 296.168 1058.56 296.712C1058.92 297.245 1059.09 297.885 1059.09 298.632H1057.52C1057.52 298.259 1057.43 297.907 1057.25 297.576C1057.08 297.245 1056.81 296.973 1056.44 296.76C1056.06 296.547 1055.58 296.44 1054.98 296.44C1054.4 296.44 1053.92 296.541 1053.54 296.744C1053.17 296.947 1052.88 297.213 1052.69 297.544C1052.51 297.864 1052.42 298.211 1052.42 298.584C1052.42 299.011 1052.59 299.389 1052.92 299.72C1053.25 300.051 1053.74 300.243 1054.39 300.296L1055.68 300.408C1056.88 300.515 1057.82 300.845 1058.52 301.4C1059.22 301.944 1059.57 302.685 1059.57 303.624C1059.57 304.339 1059.38 304.973 1059 305.528C1058.61 306.083 1058.07 306.515 1057.38 306.824C1056.69 307.133 1055.88 307.288 1054.96 307.288ZM1064.35 307.224C1063.38 307.224 1062.61 306.984 1062.06 306.504C1061.52 306.013 1061.24 305.325 1061.24 304.44C1061.24 303.533 1061.55 302.851 1062.16 302.392C1062.76 301.923 1063.62 301.688 1064.73 301.688H1066.89V301.48C1066.89 300.296 1066.29 299.704 1065.1 299.704C1064.61 299.704 1064.1 299.715 1063.56 299.736C1063.03 299.757 1062.59 299.779 1062.24 299.8V298.456C1062.58 298.424 1062.96 298.403 1063.37 298.392C1063.8 298.371 1064.2 298.36 1064.59 298.36C1065.9 298.36 1066.85 298.6 1067.45 299.08C1068.06 299.56 1068.36 300.397 1068.36 301.592V307H1067.15V305.304C1066.76 306.584 1065.83 307.224 1064.35 307.224ZM1064.67 306.008C1065.03 306.008 1065.38 305.944 1065.71 305.816C1066.04 305.677 1066.31 305.453 1066.52 305.144C1066.75 304.824 1066.87 304.387 1066.89 303.832V302.84H1064.67C1064.05 302.84 1063.57 302.989 1063.24 303.288C1062.91 303.587 1062.75 303.971 1062.75 304.44C1062.75 304.909 1062.91 305.288 1063.24 305.576C1063.57 305.864 1064.05 306.008 1064.67 306.008ZM1074.51 307.096C1073.87 307.096 1073.32 307.005 1072.85 306.824C1072.39 306.643 1072.03 306.333 1071.77 305.896C1071.53 305.448 1071.41 304.845 1071.41 304.088V299.608H1069.93V298.456H1071.41V295.864H1072.88V298.456H1075.82V299.608H1072.88V304.28C1072.88 304.739 1073 305.096 1073.25 305.352C1073.5 305.597 1073.86 305.72 1074.32 305.72H1075.82V307.096H1074.51Z" fill="#667085"/>
<path d="M27.8265 47V36.632H25.2345V35.32H29.3625V47H27.8265ZM32.9773 47V35.32H35.0573L38.5133 43.112H38.7693L42.2093 35.32H44.3053V47H42.7373V37.32L39.5373 44.584H37.6173L34.4173 37.352V47H32.9773Z" fill="#667085"/>
<line x1="54.5" y1="42" x2="1104.5" y2="42" stroke="#F2F4F7" stroke-linecap="round"/>
<path d="M7.13413 89.288C6.23813 89.288 5.48079 89.1067 4.86213 88.744C4.24346 88.3707 3.77413 87.8853 3.45413 87.288C3.13413 86.6907 2.97413 86.056 2.97413 85.384H4.47813C4.47813 86.12 4.71813 86.7333 5.19813 87.224C5.67813 87.704 6.32346 87.944 7.13413 87.944C7.93413 87.944 8.57946 87.704 9.07013 87.224C9.56079 86.744 9.80613 86.1307 9.80613 85.384C9.80613 84.8933 9.69413 84.4507 9.47013 84.056C9.25679 83.6613 8.94746 83.3467 8.54213 83.112C8.14746 82.8773 7.67813 82.76 7.13413 82.76C6.73946 82.76 6.33946 82.8293 5.93413 82.968C5.52879 83.096 5.20346 83.2827 4.95813 83.528H3.55013L4.14213 77.32H10.2701V78.632H5.37413L5.02213 82.088C5.31013 81.896 5.63546 81.7467 5.99813 81.64C6.36079 81.5333 6.76079 81.48 7.19813 81.48C8.09413 81.48 8.84613 81.6667 9.45413 82.04C10.0621 82.4027 10.5208 82.8773 10.8301 83.464C11.1501 84.04 11.3101 84.6427 11.3101 85.272V85.496C11.3101 86.1253 11.1501 86.7333 10.8301 87.32C10.5101 87.896 10.0355 88.3707 9.40613 88.744C8.78746 89.1067 8.03013 89.288 7.13413 89.288ZM17.9989 89.288C17.1242 89.288 16.3775 89.1387 15.7589 88.84C15.1509 88.5307 14.6549 88.1147 14.2709 87.592C13.8975 87.0693 13.6255 86.4667 13.4549 85.784C13.2842 85.0907 13.1989 84.36 13.1989 83.592V82.728C13.1989 81.6507 13.3642 80.68 13.6949 79.816C14.0362 78.952 14.5589 78.2693 15.2629 77.768C15.9775 77.256 16.8895 77 17.9989 77C19.1082 77 20.0149 77.256 20.7189 77.768C21.4229 78.2693 21.9402 78.952 22.2709 79.816C22.6122 80.68 22.7829 81.6507 22.7829 82.728V83.592C22.7829 84.36 22.6975 85.0907 22.5269 85.784C22.3562 86.4667 22.0789 87.0693 21.6949 87.592C21.3215 88.1147 20.8309 88.5307 20.2229 88.84C19.6149 89.1387 18.8735 89.288 17.9989 89.288ZM17.9989 87.88C19.1082 87.88 19.9189 87.5067 20.4309 86.76C20.9535 86.0027 21.2149 84.808 21.2149 83.176C21.2149 81.4693 20.9482 80.248 20.4149 79.512C19.8922 78.776 19.0869 78.408 17.9989 78.408C16.9002 78.408 16.0842 78.776 15.5509 79.512C15.0282 80.248 14.7669 81.4587 14.7669 83.144C14.7669 84.7867 15.0282 85.9867 15.5509 86.744C16.0735 87.5013 16.8895 87.88 17.9989 87.88ZM29.8895 89.288C29.0148 89.288 28.2682 89.1387 27.6495 88.84C27.0415 88.5307 26.5455 88.1147 26.1615 87.592C25.7882 87.0693 25.5162 86.4667 25.3455 85.784C25.1748 85.0907 25.0895 84.36 25.0895 83.592V82.728C25.0895 81.6507 25.2548 80.68 25.5855 79.816C25.9268 78.952 26.4495 78.2693 27.1535 77.768C27.8682 77.256 28.7802 77 29.8895 77C30.9988 77 31.9055 77.256 32.6095 77.768C33.3135 78.2693 33.8308 78.952 34.1615 79.816C34.5028 80.68 34.6735 81.6507 34.6735 82.728V83.592C34.6735 84.36 34.5882 85.0907 34.4175 85.784C34.2468 86.4667 33.9695 87.0693 33.5855 87.592C33.2122 88.1147 32.7215 88.5307 32.1135 88.84C31.5055 89.1387 30.7642 89.288 29.8895 89.288ZM29.8895 87.88C30.9988 87.88 31.8095 87.5067 32.3215 86.76C32.8442 86.0027 33.1055 84.808 33.1055 83.176C33.1055 81.4693 32.8388 80.248 32.3055 79.512C31.7828 78.776 30.9775 78.408 29.8895 78.408C28.7908 78.408 27.9748 78.776 27.4415 79.512C26.9188 80.248 26.6575 81.4587 26.6575 83.144C26.6575 84.7867 26.9188 85.9867 27.4415 86.744C27.9642 87.5013 28.7802 87.88 29.8895 87.88ZM37.3001 89V77.32H38.8361V84.696L42.4841 80.456H44.1001L40.9481 84.104L44.9641 89H43.1881L39.9721 85.016H38.8361V89H37.3001Z" fill="#667085"/>
<line x1="53.5" y1="84" x2="1104.5" y2="84" stroke="#F2F4F7" stroke-linecap="round"/>
<path d="M1.37225 128.5V126.58C1.37225 126.111 1.43625 125.711 1.56425 125.38C1.70292 125.049 1.93758 124.751 2.26825 124.484C2.59892 124.207 3.04692 123.94 3.61225 123.684L5.80425 122.676C6.33758 122.431 6.75892 122.116 7.06825 121.732C7.37758 121.337 7.53225 120.831 7.53225 120.212C7.53225 119.465 7.32425 118.884 6.90825 118.468C6.49225 118.052 5.90558 117.844 5.14825 117.844C4.40158 117.844 3.81492 118.052 3.38825 118.468C2.96158 118.884 2.74825 119.465 2.74825 120.212H1.24425C1.24425 119.54 1.38292 118.921 1.66025 118.356C1.94825 117.791 2.38025 117.343 2.95625 117.012C3.53225 116.671 4.26292 116.5 5.14825 116.5C6.03358 116.5 6.75892 116.671 7.32425 117.012C7.90025 117.343 8.32692 117.78 8.60425 118.324C8.89225 118.868 9.03625 119.46 9.03625 120.1V120.324C9.03625 121.167 8.79092 121.876 8.30025 122.452C7.82025 123.028 7.16958 123.503 6.34825 123.876L4.15625 124.884C3.66558 125.108 3.33492 125.332 3.16425 125.556C2.99358 125.78 2.90825 126.079 2.90825 126.452V127.188H9.18025V128.5H1.37225ZM15.9989 128.788C15.1242 128.788 14.3775 128.639 13.7589 128.34C13.1509 128.031 12.6549 127.615 12.2709 127.092C11.8975 126.569 11.6255 125.967 11.4549 125.284C11.2842 124.591 11.1989 123.86 11.1989 123.092V122.228C11.1989 121.151 11.3642 120.18 11.6949 119.316C12.0362 118.452 12.5589 117.769 13.2629 117.268C13.9775 116.756 14.8895 116.5 15.9989 116.5C17.1082 116.5 18.0149 116.756 18.7189 117.268C19.4229 117.769 19.9402 118.452 20.2709 119.316C20.6122 120.18 20.7829 121.151 20.7829 122.228V123.092C20.7829 123.86 20.6975 124.591 20.5269 125.284C20.3562 125.967 20.0789 126.569 19.6949 127.092C19.3215 127.615 18.8309 128.031 18.2229 128.34C17.6149 128.639 16.8735 128.788 15.9989 128.788ZM15.9989 127.38C17.1082 127.38 17.9189 127.007 18.4309 126.26C18.9535 125.503 19.2149 124.308 19.2149 122.676C19.2149 120.969 18.9482 119.748 18.4149 119.012C17.8922 118.276 17.0869 117.908 15.9989 117.908C14.9002 117.908 14.0842 118.276 13.5509 119.012C13.0282 119.748 12.7669 120.959 12.7669 122.644C12.7669 124.287 13.0282 125.487 13.5509 126.244C14.0735 127.001 14.8895 127.38 15.9989 127.38ZM27.8895 128.788C27.0148 128.788 26.2682 128.639 25.6495 128.34C25.0415 128.031 24.5455 127.615 24.1615 127.092C23.7882 126.569 23.5162 125.967 23.3455 125.284C23.1748 124.591 23.0895 123.86 23.0895 123.092V122.228C23.0895 121.151 23.2548 120.18 23.5855 119.316C23.9268 118.452 24.4495 117.769 25.1535 117.268C25.8682 116.756 26.7802 116.5 27.8895 116.5C28.9988 116.5 29.9055 116.756 30.6095 117.268C31.3135 117.769 31.8308 118.452 32.1615 119.316C32.5028 120.18 32.6735 121.151 32.6735 122.228V123.092C32.6735 123.86 32.5882 124.591 32.4175 125.284C32.2468 125.967 31.9695 126.569 31.5855 127.092C31.2122 127.615 30.7215 128.031 30.1135 128.34C29.5055 128.639 28.7642 128.788 27.8895 128.788ZM27.8895 127.38C28.9988 127.38 29.8095 127.007 30.3215 126.26C30.8442 125.503 31.1055 124.308 31.1055 122.676C31.1055 120.969 30.8388 119.748 30.3055 119.012C29.7828 118.276 28.9775 117.908 27.8895 117.908C26.7908 117.908 25.9748 118.276 25.4415 119.012C24.9188 119.748 24.6575 120.959 24.6575 122.644C24.6575 124.287 24.9188 125.487 25.4415 126.244C25.9642 127.001 26.7802 127.38 27.8895 127.38ZM35.3001 128.5V116.82H36.8361V124.196L40.4841 119.956H42.1001L38.9481 123.604L42.9641 128.5H41.1881L37.9721 124.516H36.8361V128.5H35.3001Z" fill="#667085"/>
<line x1="51.5" y1="123.5" x2="1104.5" y2="123.5" stroke="#F2F4F7" stroke-linecap="round"/>
<path d="M3.59213 165.5V155.132H1.00013V153.82H5.12813V165.5H3.59213ZM12.9989 165.788C12.1242 165.788 11.3775 165.639 10.7589 165.34C10.1509 165.031 9.65488 164.615 9.27088 164.092C8.89754 163.569 8.62554 162.967 8.45488 162.284C8.28421 161.591 8.19888 160.86 8.19888 160.092V159.228C8.19888 158.151 8.36421 157.18 8.69488 156.316C9.03621 155.452 9.55888 154.769 10.2629 154.268C10.9775 153.756 11.8895 153.5 12.9989 153.5C14.1082 153.5 15.0149 153.756 15.7189 154.268C16.4229 154.769 16.9402 155.452 17.2709 156.316C17.6122 157.18 17.7829 158.151 17.7829 159.228V160.092C17.7829 160.86 17.6975 161.591 17.5269 162.284C17.3562 162.967 17.0789 163.569 16.6949 164.092C16.3215 164.615 15.8309 165.031 15.2229 165.34C14.6149 165.639 13.8735 165.788 12.9989 165.788ZM12.9989 164.38C14.1082 164.38 14.9189 164.007 15.4309 163.26C15.9535 162.503 16.2149 161.308 16.2149 159.676C16.2149 157.969 15.9482 156.748 15.4149 156.012C14.8922 155.276 14.0869 154.908 12.9989 154.908C11.9002 154.908 11.0842 155.276 10.5509 156.012C10.0282 156.748 9.76688 157.959 9.76688 159.644C9.76688 161.287 10.0282 162.487 10.5509 163.244C11.0735 164.001 11.8895 164.38 12.9989 164.38ZM24.8895 165.788C24.0148 165.788 23.2682 165.639 22.6495 165.34C22.0415 165.031 21.5455 164.615 21.1615 164.092C20.7882 163.569 20.5162 162.967 20.3455 162.284C20.1748 161.591 20.0895 160.86 20.0895 160.092V159.228C20.0895 158.151 20.2548 157.18 20.5855 156.316C20.9268 155.452 21.4495 154.769 22.1535 154.268C22.8682 153.756 23.7802 153.5 24.8895 153.5C25.9988 153.5 26.9055 153.756 27.6095 154.268C28.3135 154.769 28.8308 155.452 29.1615 156.316C29.5028 157.18 29.6735 158.151 29.6735 159.228V160.092C29.6735 160.86 29.5882 161.591 29.4175 162.284C29.2468 162.967 28.9695 163.569 28.5855 164.092C28.2122 164.615 27.7215 165.031 27.1135 165.34C26.5055 165.639 25.7642 165.788 24.8895 165.788ZM24.8895 164.38C25.9988 164.38 26.8095 164.007 27.3215 163.26C27.8442 162.503 28.1055 161.308 28.1055 159.676C28.1055 157.969 27.8388 156.748 27.3055 156.012C26.7828 155.276 25.9775 154.908 24.8895 154.908C23.7908 154.908 22.9748 155.276 22.4415 156.012C21.9188 156.748 21.6575 157.959 21.6575 159.644C21.6575 161.287 21.9188 162.487 22.4415 163.244C22.9642 164.001 23.7802 164.38 24.8895 164.38ZM32.3001 165.5V153.82H33.8361V161.196L37.4841 156.956H39.1001L35.9481 160.604L39.9641 165.5H38.1881L34.9721 161.516H33.8361V165.5H32.3001Z" fill="#667085"/>
<line x1="48.5" y1="160.5" x2="1104.5" y2="160.5" stroke="#F2F4F7" stroke-linecap="round"/>
<path d="M6.02475 202.788C5.12875 202.788 4.37142 202.607 3.75275 202.244C3.13408 201.871 2.66475 201.385 2.34475 200.788C2.02475 200.191 1.86475 199.556 1.86475 198.884H3.36875C3.36875 199.62 3.60875 200.233 4.08875 200.724C4.56875 201.204 5.21408 201.444 6.02475 201.444C6.82475 201.444 7.47008 201.204 7.96075 200.724C8.45142 200.244 8.69675 199.631 8.69675 198.884C8.69675 198.393 8.58475 197.951 8.36075 197.556C8.14742 197.161 7.83808 196.847 7.43275 196.612C7.03808 196.377 6.56875 196.26 6.02475 196.26C5.63008 196.26 5.23008 196.329 4.82475 196.468C4.41942 196.596 4.09408 196.783 3.84875 197.028H2.44075L3.03275 190.82H9.16075V192.132H4.26475L3.91275 195.588C4.20075 195.396 4.52608 195.247 4.88875 195.14C5.25142 195.033 5.65142 194.98 6.08875 194.98C6.98475 194.98 7.73675 195.167 8.34475 195.54C8.95275 195.903 9.41142 196.377 9.72075 196.964C10.0408 197.54 10.2008 198.143 10.2008 198.772V198.996C10.2008 199.625 10.0408 200.233 9.72075 200.82C9.40075 201.396 8.92608 201.871 8.29675 202.244C7.67808 202.607 6.92075 202.788 6.02475 202.788ZM16.8895 202.788C16.0148 202.788 15.2682 202.639 14.6495 202.34C14.0415 202.031 13.5455 201.615 13.1615 201.092C12.7882 200.569 12.5162 199.967 12.3455 199.284C12.1748 198.591 12.0895 197.86 12.0895 197.092V196.228C12.0895 195.151 12.2548 194.18 12.5855 193.316C12.9268 192.452 13.4495 191.769 14.1535 191.268C14.8682 190.756 15.7802 190.5 16.8895 190.5C17.9988 190.5 18.9055 190.756 19.6095 191.268C20.3135 191.769 20.8308 192.452 21.1615 193.316C21.5028 194.18 21.6735 195.151 21.6735 196.228V197.092C21.6735 197.86 21.5882 198.591 21.4175 199.284C21.2468 199.967 20.9695 200.569 20.5855 201.092C20.2122 201.615 19.7215 202.031 19.1135 202.34C18.5055 202.639 17.7642 202.788 16.8895 202.788ZM16.8895 201.38C17.9988 201.38 18.8095 201.007 19.3215 200.26C19.8442 199.503 20.1055 198.308 20.1055 196.676C20.1055 194.969 19.8388 193.748 19.3055 193.012C18.7828 192.276 17.9775 191.908 16.8895 191.908C15.7908 191.908 14.9748 192.276 14.4415 193.012C13.9188 193.748 13.6575 194.959 13.6575 196.644C13.6575 198.287 13.9188 199.487 14.4415 200.244C14.9642 201.001 15.7802 201.38 16.8895 201.38ZM24.3001 202.5V190.82H25.8361V198.196L29.4841 193.956H31.1001L27.9481 197.604L31.9641 202.5H30.1881L26.9721 198.516H25.8361V202.5H24.3001Z" fill="#667085"/>
<line x1="40.5" y1="197.5" x2="1104.5" y2="197.5" stroke="#F2F4F7" stroke-linecap="round"/>
<path d="M2.26288 239.5V237.58C2.26288 237.111 2.32688 236.711 2.45488 236.38C2.59354 236.049 2.82821 235.751 3.15887 235.484C3.48954 235.207 3.93754 234.94 4.50288 234.684L6.69488 233.676C7.22821 233.431 7.64954 233.116 7.95888 232.732C8.26821 232.337 8.42288 231.831 8.42288 231.212C8.42288 230.465 8.21488 229.884 7.79888 229.468C7.38288 229.052 6.79621 228.844 6.03888 228.844C5.29221 228.844 4.70554 229.052 4.27888 229.468C3.85221 229.884 3.63888 230.465 3.63888 231.212H2.13488C2.13488 230.54 2.27354 229.921 2.55088 229.356C2.83888 228.791 3.27088 228.343 3.84688 228.012C4.42288 227.671 5.15354 227.5 6.03888 227.5C6.92421 227.5 7.64954 227.671 8.21488 228.012C8.79088 228.343 9.21754 228.78 9.49487 229.324C9.78288 229.868 9.92688 230.46 9.92688 231.1V231.324C9.92688 232.167 9.68154 232.876 9.19088 233.452C8.71088 234.028 8.06021 234.503 7.23888 234.876L5.04688 235.884C4.55621 236.108 4.22554 236.332 4.05488 236.556C3.88421 236.78 3.79888 237.079 3.79888 237.452V238.188H10.0709V239.5H2.26288ZM16.8895 239.788C16.0148 239.788 15.2682 239.639 14.6495 239.34C14.0415 239.031 13.5455 238.615 13.1615 238.092C12.7882 237.569 12.5162 236.967 12.3455 236.284C12.1748 235.591 12.0895 234.86 12.0895 234.092V233.228C12.0895 232.151 12.2548 231.18 12.5855 230.316C12.9268 229.452 13.4495 228.769 14.1535 228.268C14.8682 227.756 15.7802 227.5 16.8895 227.5C17.9988 227.5 18.9055 227.756 19.6095 228.268C20.3135 228.769 20.8308 229.452 21.1615 230.316C21.5028 231.18 21.6735 232.151 21.6735 233.228V234.092C21.6735 234.86 21.5882 235.591 21.4175 236.284C21.2468 236.967 20.9695 237.569 20.5855 238.092C20.2122 238.615 19.7215 239.031 19.1135 239.34C18.5055 239.639 17.7642 239.788 16.8895 239.788ZM16.8895 238.38C17.9988 238.38 18.8095 238.007 19.3215 237.26C19.8442 236.503 20.1055 235.308 20.1055 233.676C20.1055 231.969 19.8388 230.748 19.3055 230.012C18.7828 229.276 17.9775 228.908 16.8895 228.908C15.7908 228.908 14.9748 229.276 14.4415 230.012C13.9188 230.748 13.6575 231.959 13.6575 233.644C13.6575 235.287 13.9188 236.487 14.4415 237.244C14.9642 238.001 15.7802 238.38 16.8895 238.38ZM24.3001 239.5V227.82H25.8361V235.196L29.4841 230.956H31.1001L27.9481 234.604L31.9641 239.5H30.1881L26.9721 235.516H25.8361V239.5H24.3001Z" fill="#667085"/>
<line x1="40.5" y1="234.5" x2="1104.5" y2="234.5" stroke="#F2F4F7" stroke-linecap="round"/>
<path d="M26.0614 276.788C25.1867 276.788 24.44 276.639 23.8214 276.34C23.2134 276.031 22.7174 275.615 22.3334 275.092C21.96 274.569 21.688 273.967 21.5174 273.284C21.3467 272.591 21.2614 271.86 21.2614 271.092V270.228C21.2614 269.151 21.4267 268.18 21.7574 267.316C22.0987 266.452 22.6214 265.769 23.3254 265.268C24.04 264.756 24.952 264.5 26.0614 264.5C27.1707 264.5 28.0774 264.756 28.7814 265.268C29.4854 265.769 30.0027 266.452 30.3334 267.316C30.6747 268.18 30.8454 269.151 30.8454 270.228V271.092C30.8454 271.86 30.76 272.591 30.5894 273.284C30.4187 273.967 30.1414 274.569 29.7574 275.092C29.384 275.615 28.8934 276.031 28.2854 276.34C27.6774 276.639 26.936 276.788 26.0614 276.788ZM26.0614 275.38C27.1707 275.38 27.9814 275.007 28.4934 274.26C29.016 273.503 29.2774 272.308 29.2774 270.676C29.2774 268.969 29.0107 267.748 28.4774 267.012C27.9547 266.276 27.1494 265.908 26.0614 265.908C24.9627 265.908 24.1467 266.276 23.6134 267.012C23.0907 267.748 22.8294 268.959 22.8294 270.644C22.8294 272.287 23.0907 273.487 23.6134 274.244C24.136 275.001 24.952 275.38 26.0614 275.38Z" fill="#667085"/>
<line x1="40.5" y1="271.5" x2="1104.5" y2="271.5" stroke="#F2F4F7" stroke-linecap="round"/>
<g style="mix-blend-mode:multiply" opacity="0.1">
<path d="M1074.97 50.2799C1089.99 50.2799 1089.99 32.6836 1105 32.6836V251.001H54V145.174C70.2655 145.174 69.0143 151.647 84.0286 151.647C99.0429 151.647 99.0429 133.265 114.057 133.265C129.071 133.265 126.569 138.921 144.086 138.921C161.602 138.921 156.598 149.51 174.114 149.51C191.631 149.51 187.877 145.488 204.143 145.488C220.408 145.488 217.28 126.321 234.171 126.321C251.062 126.321 246.683 132.574 264.2 132.574C281.717 132.574 278.589 141.184 294.229 141.184C309.868 141.184 307.366 112.59 324.257 112.59C341.148 112.59 339.271 122.488 354.286 122.488C369.3 122.488 366.798 108.63 384.314 108.63C401.831 108.63 398.077 117.491 414.343 117.491C430.608 117.491 428.106 81.2619 444.371 81.2619C460.637 81.2619 457.509 91.3484 474.4 91.3484C491.291 91.3484 486.912 98.0098 504.429 98.0098C521.945 98.0098 517.566 80.7278 534.457 80.7278C551.348 80.7278 546.969 89.2117 564.486 89.2117C582.002 89.2117 578.874 75.2289 594.514 75.2289C610.154 75.2289 608.277 51.851 624.543 51.851C640.808 51.851 638.306 90.9713 654.571 90.9713C670.837 90.9713 668.96 63.5714 684.6 63.5714C700.24 63.5714 697.112 75.5746 714.629 75.5746C732.145 75.5746 728.392 86.3523 744.657 86.3523C760.923 86.3523 759.046 68.5046 774.686 68.5046C790.326 68.5046 789.074 85.4725 804.714 85.4725C820.354 85.4725 818.477 77.9312 834.743 77.9312C851.008 77.9312 848.506 62.3773 864.771 62.3773C881.037 62.3773 878.535 68.5989 894.8 68.5989C911.065 68.5989 909.814 45.8808 924.829 45.8808C939.843 45.8808 937.34 77.02 954.857 77.02C972.374 77.02 967.995 55.873 984.886 55.873C1001.78 55.873 999.274 64.5769 1014.91 64.5769C1030.55 64.5769 1029.3 42.8957 1044.94 42.8957C1060.58 42.8957 1059.96 50.2799 1074.97 50.2799Z" fill="url(#paint0_linear_2243_22928)"/>
</g>
<path d="M1105 32.6836C1089.99 32.6836 1089.99 50.2799 1074.97 50.2799C1059.96 50.2799 1060.58 42.8957 1044.94 42.8957C1029.3 42.8957 1030.55 64.5769 1014.91 64.5769C999.274 64.5769 1001.78 55.873 984.886 55.873C967.995 55.873 972.374 77.02 954.857 77.02C937.34 77.02 939.843 45.8808 924.829 45.8808C909.814 45.8808 911.065 68.5989 894.8 68.5989C878.535 68.5989 881.037 62.3773 864.771 62.3773C848.506 62.3773 851.008 77.9312 834.743 77.9312C818.477 77.9312 820.354 85.4725 804.714 85.4725C789.074 85.4725 790.326 68.5046 774.686 68.5046C759.046 68.5046 760.923 86.3523 744.657 86.3523C728.392 86.3523 732.145 75.5746 714.629 75.5746C697.112 75.5746 700.24 63.5714 684.6 63.5714C668.96 63.5714 670.837 90.9713 654.571 90.9713C638.306 90.9713 640.808 51.851 624.543 51.851C608.277 51.851 610.154 75.2289 594.514 75.2289C578.874 75.2289 582.002 89.2117 564.486 89.2117C546.969 89.2117 551.348 80.7278 534.457 80.7278C517.566 80.7278 521.945 98.0098 504.429 98.0098C486.912 98.0098 491.291 91.3484 474.4 91.3484C457.509 91.3484 460.637 81.2619 444.371 81.2619C428.106 81.2619 430.608 117.491 414.343 117.491C398.077 117.491 401.831 108.63 384.314 108.63C366.798 108.63 369.3 122.488 354.286 122.488C339.271 122.488 341.148 112.59 324.257 112.59C307.366 112.59 309.868 141.184 294.229 141.184C278.589 141.184 281.717 132.574 264.2 132.574C246.683 132.574 251.062 126.321 234.171 126.321C217.28 126.321 220.408 145.488 204.143 145.488C187.877 145.488 191.631 149.51 174.114 149.51C156.598 149.51 161.602 138.921 144.086 138.921C126.569 138.921 129.071 133.265 114.057 133.265C99.0429 133.265 99.0429 151.647 84.0286 151.647C69.0143 151.647 70.2655 145.174 54 145.174" stroke="#A609EF" stroke-width="2" stroke-linecap="round" stroke-linejoin="round"/>
<defs>
<linearGradient id="paint0_linear_2243_22928" x1="579.5" y1="32.6836" x2="579.5" y2="241.282" gradientUnits="userSpaceOnUse">
<stop stop-color="#A609EF"/>
<stop offset="1" stop-color="#A609EF" stop-opacity="0"/>
</linearGradient>
</defs>
</svg>
