<svg width="16" height="17" viewBox="0 0 16 17" fill="none" xmlns="http://www.w3.org/2000/svg">
<rect y="0.5" width="16" height="16" rx="8" fill="#0A6DEE" fill-opacity="0.06"/>
<path d="M8 4.125C7.13471 4.125 6.28885 4.38159 5.56938 4.86232C4.84992 5.34305 4.28916 6.02633 3.95803 6.82576C3.62689 7.62519 3.54025 8.50485 3.70906 9.35352C3.87787 10.2022 4.29455 10.9817 4.90641 11.5936C5.51826 12.2054 6.29781 12.6221 7.14648 12.7909C7.99515 12.9597 8.87481 12.8731 9.67424 12.542C10.4737 12.2108 11.1569 11.6501 11.6377 10.9306C12.1184 10.2112 12.375 9.36529 12.375 8.5C12.375 7.33968 11.9141 6.22688 11.0936 5.40641C10.2731 4.58594 9.16032 4.125 8 4.125ZM8 12.25C7.25832 12.25 6.5333 12.0301 5.91661 11.618C5.29993 11.206 4.81928 10.6203 4.53545 9.93506C4.25162 9.24984 4.17736 8.49584 4.32206 7.76841C4.46675 7.04098 4.8239 6.3728 5.34835 5.84835C5.8728 5.3239 6.54098 4.96675 7.26841 4.82206C7.99584 4.67736 8.74984 4.75162 9.43506 5.03545C10.1203 5.31928 10.706 5.79993 11.118 6.41661C11.5301 7.0333 11.75 7.75832 11.75 8.5C11.75 9.49456 11.3549 10.4484 10.6517 11.1517C9.94839 11.8549 8.99456 12.25 8 12.25Z" fill="#0A6DEE"/>
<path d="M7.6875 6H8.3125V9.4375H7.6875V6ZM8 10.375C7.90729 10.375 7.81666 10.4025 7.73958 10.454C7.66249 10.5055 7.60241 10.5787 7.56693 10.6644C7.53145 10.75 7.52217 10.8443 7.54026 10.9352C7.55834 11.0261 7.60299 11.1097 7.66854 11.1752C7.7341 11.2408 7.81762 11.2854 7.90855 11.3035C7.99948 11.3216 8.09373 11.3123 8.17938 11.2768C8.26504 11.2413 8.33824 11.1813 8.38975 11.1042C8.44126 11.0271 8.46875 10.9365 8.46875 10.8438C8.46875 10.7194 8.41936 10.6002 8.33146 10.5123C8.24355 10.4244 8.12432 10.375 8 10.375Z" fill="#0A6DEE"/>
</svg>
