<svg width="25" height="24" viewBox="0 0 25 24" fill="none" xmlns="http://www.w3.org/2000/svg">
<path d="M11.6922 14.8034C12.6974 14.1342 13.4605 13.1593 13.8688 12.0228C14.2771 10.8863 14.3087 9.64865 13.9592 8.49278C13.6096 7.33691 12.8974 6.32422 11.9277 5.60447C10.9581 4.88471 9.78258 4.49609 8.57501 4.49609C7.36744 4.49609 6.19193 4.88471 5.2223 5.60447C4.25267 6.32422 3.54041 7.33691 3.19085 8.49278C2.84128 9.64865 2.87297 10.8863 3.28123 12.0228C3.68949 13.1593 4.45264 14.1342 5.45783 14.8034C3.63954 15.4735 2.08667 16.7137 1.03095 18.3387C0.975465 18.4212 0.936925 18.5138 0.91757 18.6113C0.898216 18.7088 0.898432 18.8092 0.918208 18.9066C0.937983 19.004 0.976923 19.0965 1.03276 19.1787C1.0886 19.2609 1.16023 19.3313 1.24348 19.3856C1.32674 19.4399 1.41995 19.4771 1.51771 19.495C1.61547 19.513 1.71582 19.5113 1.81293 19.4902C1.91005 19.469 2.00199 19.4287 2.08341 19.3717C2.16482 19.3147 2.2341 19.2421 2.2872 19.1581C2.96819 18.1107 3.90003 17.25 4.99811 16.6542C6.09619 16.0583 7.3257 15.7463 8.57501 15.7463C9.82432 15.7463 11.0538 16.0583 12.1519 16.6542C13.25 17.25 14.1818 18.1107 14.8628 19.1581C14.9728 19.3216 15.1428 19.4352 15.3359 19.4744C15.529 19.5136 15.7298 19.4752 15.8948 19.3676C16.0599 19.2599 16.1759 19.0916 16.2179 18.8991C16.2598 18.7066 16.2244 18.5053 16.1191 18.3387C15.0634 16.7137 13.5105 15.4735 11.6922 14.8034ZM4.45001 10.1234C4.45001 9.30753 4.69194 8.51 5.1452 7.83165C5.59846 7.1533 6.2427 6.62458 6.99644 6.31237C7.75019 6.00016 8.57959 5.91847 9.37976 6.07764C10.1799 6.2368 10.9149 6.62967 11.4918 7.20656C12.0687 7.78345 12.4616 8.51846 12.6208 9.31863C12.7799 10.1188 12.6982 10.9482 12.386 11.7019C12.0738 12.4557 11.5451 13.0999 10.8667 13.5532C10.1884 14.0064 9.39086 14.2484 8.57501 14.2484C7.48138 14.2471 6.43289 13.8121 5.65957 13.0388C4.88625 12.2655 4.45125 11.217 4.45001 10.1234ZM24.1506 19.3765C23.984 19.4851 23.7811 19.5232 23.5865 19.4822C23.3919 19.4412 23.2215 19.3246 23.1128 19.1581C22.4327 18.11 21.5009 17.249 20.4026 16.6534C19.3043 16.0578 18.0744 15.7467 16.825 15.7484C16.6261 15.7484 16.4353 15.6694 16.2947 15.5287C16.154 15.3881 16.075 15.1973 16.075 14.9984C16.075 14.7995 16.154 14.6087 16.2947 14.468C16.4353 14.3274 16.6261 14.2484 16.825 14.2484C17.4325 14.2478 18.0323 14.1131 18.5817 13.8538C19.1311 13.5945 19.6164 13.2171 20.003 12.7485C20.3896 12.28 20.6679 11.7318 20.8181 11.1432C20.9683 10.5546 20.9866 9.94003 20.8717 9.34351C20.7569 8.747 20.5117 8.18321 20.1537 7.69244C19.7957 7.20166 19.3337 6.79601 18.8008 6.50447C18.2679 6.21293 17.6771 6.0427 17.0707 6.00594C16.4644 5.96918 15.8574 6.06679 15.2931 6.29181C15.2011 6.33158 15.1021 6.35251 15.0019 6.35336C14.9016 6.35421 14.8023 6.33496 14.7096 6.29675C14.617 6.25853 14.5329 6.20214 14.4624 6.13089C14.3919 6.05964 14.3364 5.97499 14.2992 5.88193C14.262 5.78887 14.2438 5.68929 14.2457 5.58908C14.2476 5.48887 14.2696 5.39006 14.3103 5.29849C14.3511 5.20691 14.4097 5.12444 14.4829 5.05593C14.5561 4.98742 14.6422 4.93427 14.7363 4.89963C16.0276 4.38461 17.464 4.36608 18.7682 4.8476C20.0724 5.32912 21.1521 6.27658 21.799 7.5072C22.4459 8.73782 22.6141 10.1644 22.2712 11.5117C21.9283 12.8591 21.0986 14.0317 19.9422 14.8034C21.7605 15.4735 23.3134 16.7137 24.3691 18.3387C24.4777 18.5053 24.5157 18.7082 24.4748 18.9028C24.4338 19.0975 24.3172 19.2678 24.1506 19.3765Z" fill="white"/>
</svg>
