<svg width="57" height="38" viewBox="0 0 57 38" fill="none" xmlns="http://www.w3.org/2000/svg">
<path d="M0 4.50938C5.86081 2.8578 10.5768 1.23745 15.4237 0.331615C16.9631 0.0446373 19.243 1.25892 20.5245 2.47907C26.0903 7.76765 30.1695 12.9137 37.2044 19.153C39.7538 8.3006 49.5961 12.25 56.3399 7.71689C55.1678 15.108 54.191 21.1599 53.2669 27.2216C51.999 35.6162 36.042 40.731 31.0232 35.7411C20.8547 25.6344 10.8034 15.3989 0 4.50938Z" fill="#FAFAFA"/>
<path d="M31.0233 35.7391C36.0421 40.729 51.9991 35.6044 53.267 27.2196C54.1852 21.1676 55.1718 15.1157 56.34 7.71484C49.5962 12.2479 39.754 8.30051 37.2045 19.151C36.427 23.3619 36.1593 29.8687 31.0233 35.7391Z" fill="white"/>
</svg>
